<svg xmlns="http://www.w3.org/2000/svg" viewBox=".08 0 128 128">
  <path d="M64.08 0a64 64 0 1064 64 64.07 64.07 0 00-64-64zm6 14.22a14.59 14.59 0 015.35 0A18.41 18.41 0 0182 17.7a22.93 22.93 0 003.37 2.14 23.76 23.76 0 003.85 1.34A19 19 0 0195.64 24l-2.87 2.86A18.78 18.78 0 0088.09 25a28.08 28.08 0 01-4.48-1.57 27.45 27.45 0 01-4-2.49 15.36 15.36 0 00-5.12-2.79 11.86 11.86 0 00-4.46.11zm17.83 17.46l-2.51 2.51a1.7 1.7 0 01-.39-.27 2 2 0 01-.15-2.71 1.8 1.8 0 013 .47zm-10.84 7l2.1-2.48a2 2 0 012.83-.28 2 2 0 01.65 1l-4.81 4.81a1.68 1.68 0 01-.53-.31 2 2 0 01-.24-2.79zm-1.44-5.38a2 2 0 011-2.63 2.77 2.77 0 001.57-2.91 2 2 0 114-.25 6.78 6.78 0 01-4 6.84 2 2 0 01-.79.16 2 2 0 01-1.78-1.21zm-.89-6.17a1.75 1.75 0 01-2.55.17 2 2 0 01-.19-2.66 1.76 1.76 0 012.55-.17 1.94 1.94 0 01.19 2.66zm-4.66 6.69a1.69 1.69 0 011 .45 1.93 1.93 0 01.14 2.65 1.81 1.81 0 01-1.15.64zm0 12.14a2.89 2.89 0 00.63-2.8 2 2 0 013.89-.93 7.47 7.47 0 01.18 2.58l-4.7 4.7zM39 21.18a23.76 23.76 0 003.85-1.34 22.93 22.93 0 003.37-2.14 18.58 18.58 0 016.55-3.43 14.59 14.59 0 015.35 0v4.06a11.86 11.86 0 00-4.46-.11A15.36 15.36 0 0048.5 21a26.55 26.55 0 01-4 2.48A28.12 28.12 0 0140.07 25a18.78 18.78 0 00-4.68 1.8L32.53 24A18.63 18.63 0 0139 21.18zm14.6 21a2 2 0 012.4-1.43 2 2 0 011.48 2.41 2.89 2.89 0 00.63 2.8v3.55l-4.7-4.7a7.47 7.47 0 01.15-2.58zm0-17.76a1.76 1.76 0 012.55.17A2 2 0 0156 27.3a1.75 1.75 0 01-2.55-.17 1.94 1.94 0 01.12-2.66zm3.36 12.45a1.93 1.93 0 01.14-2.65 1.69 1.69 0 011-.45v3.74a1.81 1.81 0 01-1.17-.59zm-6.24-2.41a2 2 0 01-.79-.16 6.78 6.78 0 01-4-6.84 2 2 0 114 .25 2.77 2.77 0 001.57 2.91 2 2 0 01-.79 3.84zm.17 6.94a1.68 1.68 0 01-.53.31L45.52 37a2 2 0 01.65-1 2 2 0 012.82.23l2.1 2.48a2 2 0 01-.23 2.74zm-7.71-7.53a1.7 1.7 0 01-.39.27l-2.51-2.51a1.8 1.8 0 013-.47 2 2 0 01-.13 2.76zM15 56.82a23.06 23.06 0 001.33-3.73 25.36 25.36 0 00.41-4.09 18.44 18.44 0 011.38-7.14 18.62 18.62 0 014.78-5.59 27.08 27.08 0 002.54-2.44l2.82 2.82a30.14 30.14 0 01-2.7 2.61 15.53 15.53 0 00-3.84 4.33 15.48 15.48 0 00-1 5.64A28.69 28.69 0 0120.2 54a26.47 26.47 0 01-1.38 4h-4.33c.15-.4.32-.79.51-1.18zm23.57-6.4a1.85 1.85 0 01-.21-3.69l2.06 2.06a1.86 1.86 0 01-1.88 1.63zm2.17 3.24a2 2 0 012.79.52 2.72 2.72 0 003 1.21 1.77 1.77 0 01.39-.07l2.15 2.15A1.93 1.93 0 0149 58h-7.37a7.48 7.48 0 01-1.43-1.56 2 2 0 01.51-2.78zm-3 4.34h-7.28a2 2 0 012-1.92h3.27a2 2 0 012 1.92zm-5.84-3.86a6.7 6.7 0 01-7.82-1.43 2 2 0 012.85-2.82 2.72 2.72 0 003.2.67 2 2 0 111.77 3.58zM26.53 58h-3.08a1.9 1.9 0 013.08 0zm2.34-11.29a1.86 1.86 0 111.87-1.85 1.86 1.86 0 01-1.87 1.85zM18.12 86.13A18.48 18.48 0 0116.74 79a25.36 25.36 0 00-.44-4.08 23.06 23.06 0 00-1.3-3.74c-.16-.39-.33-.78-.48-1.18h4.33a26.47 26.47 0 011.38 4 28.69 28.69 0 01.54 4.74 15.48 15.48 0 001 5.64 15.66 15.66 0 003.84 4.33 33 33 0 012.7 2.6l-2.82 2.82a28.32 28.32 0 00-2.54-2.43 18.61 18.61 0 01-4.83-5.57zm17.61-11.21h-3.27a2 2 0 110-4h3.27a2 2 0 010 4zm2.81 5.66a2 2 0 01.42.05l-2.23 2.23a1.54 1.54 0 01-.06-.43 1.86 1.86 0 011.87-1.85zm-6.65-3.72a2 2 0 11-1.77 3.58 2.72 2.72 0 00-3.2.67 2 2 0 01-1.43.59 2 2 0 01-1.4-.58 2 2 0 010-2.83 6.72 6.72 0 017.8-1.43zm-1.15 9.28a1.87 1.87 0 11-1.87-1.85 1.86 1.86 0 011.87 1.85zM25 73.79a1.9 1.9 0 111.91-1.9 1.9 1.9 0 01-1.91 1.9zm33.09 40a14.59 14.59 0 01-5.35 0 18.41 18.41 0 01-6.55-3.43 22.93 22.93 0 00-3.37-2.14 23.76 23.76 0 00-3.82-1.4 19 19 0 01-6.48-2.82l2.87-2.87a18.41 18.41 0 004.68 1.87 28.07 28.07 0 014.48 1.57 27.45 27.45 0 014 2.49 15.36 15.36 0 005.12 2.79 11.86 11.86 0 004.46-.11zm-18-17.31L42 94.6a1.79 1.79 0 011.19.48 2 2 0 01.15 2.71 1.79 1.79 0 01-2.6.18 1.89 1.89 0 01-.65-1.5zm11-6.1L49 92.85a2 2 0 01-1.53.71A2 2 0 0145.54 91l3.94-3.94a2 2 0 011.61 3.29zm1.44 5.33a2 2 0 01-1 2.63 2.77 2.77 0 00-1.57 2.91 2 2 0 01-1.86 2.12h-.14a2 2 0 01-2-1.88 6.78 6.78 0 014-6.84 2 2 0 012.57 1.05zm.89 6.17a1.75 1.75 0 012.58-.18 2 2 0 01.15 2.66 1.76 1.76 0 01-2.55.17 1.94 1.94 0 01-.18-2.66zm4.66-6.69a1.69 1.69 0 01-1-.45 1.93 1.93 0 01-.14-2.65 1.81 1.81 0 011.15-.64zm0-12.14a2.89 2.89 0 00-.63 2.8 2 2 0 01-1.45 2.4 1.89 1.89 0 01-.47.06 2 2 0 01-1.94-1.54 7.17 7.17 0 01.07-3.84L57.55 79a1.92 1.92 0 01.53.11zm31.12 23.77a23.76 23.76 0 00-3.85 1.34A22.93 22.93 0 0082 110.3a18.58 18.58 0 01-6.55 3.43 11 11 0 01-2.54.27 20.33 20.33 0 01-2.81-.22v-4.06a11.86 11.86 0 004.46.11 15.36 15.36 0 005.1-2.83 26.55 26.55 0 014-2.48 28.12 28.12 0 014.43-1.52 18.41 18.41 0 004.68-1.81l2.87 2.81a19 19 0 01-6.44 2.82zM74.6 86.77a2 2 0 01-1.94 1.54 1.89 1.89 0 01-.47-.06 2 2 0 01-1.48-2.41 2.89 2.89 0 00-.63-2.8v-3.92a1.92 1.92 0 01.53-.11l3.92 3.92a7.17 7.17 0 01.07 3.84zm0 17.76a1.76 1.76 0 01-2.55-.17 2 2 0 01.15-2.66 1.75 1.75 0 012.55.17 1.94 1.94 0 01-.16 2.66zm-3.37-12.45a1.93 1.93 0 01-.14 2.65 1.69 1.69 0 01-1 .45v-3.74a1.81 1.81 0 011.14.64zm7 2.57a6.78 6.78 0 014 6.84 2 2 0 01-2 1.88h-.14a2 2 0 01-1.86-2.12 2.77 2.77 0 00-1.57-2.91 2 2 0 011.58-3.68zm-1-7.1a2 2 0 011.38-.47L82.62 91a2 2 0 01-3.45 1.83l-2.1-2.48a2 2 0 01.23-2.8zM85 95.08a1.79 1.79 0 011.19-.48l1.87 1.87a1.89 1.89 0 01-.61 1.5 1.79 1.79 0 01-2.6-.18 2 2 0 01.15-2.71zm28.18-23.9a23.06 23.06 0 00-1.33 3.73 25.36 25.36 0 00-.44 4.08 18.44 18.44 0 01-1.41 7.14 18.61 18.61 0 01-4.78 5.59 28.32 28.32 0 00-2.54 2.43l-2.78-2.82a33 33 0 012.7-2.6 15.53 15.53 0 003.84-4.33 15.48 15.48 0 001-5.64A28.69 28.69 0 01108 74a26.47 26.47 0 011.38-4h4.33c-.19.4-.36.79-.52 1.18zm-22.75 1.74a2 2 0 012-2h3.27a2 2 0 010 4h-3.27a2 2 0 01-2-2zm1.06 9.51a1.54 1.54 0 01-.06.43l-2.23-2.23a2 2 0 01.42-.05 1.86 1.86 0 011.87 1.85zm4.78-5.57a6.71 6.71 0 017.82 1.43 2 2 0 010 2.83 2 2 0 01-1.4.58 2 2 0 01-1.43-.59 2.72 2.72 0 00-3.2-.67 2 2 0 11-1.77-3.58zm5-5a1.91 1.91 0 111.91 1.9 1.91 1.91 0 01-1.92-1.87zm-2 12.4a1.86 1.86 0 11-1.87 1.85 1.86 1.86 0 011.89-1.82zM124 64a2 2 0 01-2 2H68.83l37.6 37.6a2 2 0 11-2.83 2.83L66 68.83V122a2 2 0 01-4 0V68.83l-37.6 37.6a2 2 0 01-2.83-2.83L59.17 66H6a2 2 0 010-4h53.17l-37.6-37.6a2 2 0 012.83-2.83L62 59.17V6a2 2 0 014 0v53.17l37.6-37.6a2 2 0 012.83 2.83L68.83 62H122a2 2 0 012 2zM87.45 77.34a2 2 0 01-1.13.35h-.06l-5.87-5.87a.35.35 0 01.14-.06 6.7 6.7 0 017.47 2.8 2 2 0 01-.55 2.78zM40.2 74.56a6.7 6.7 0 017.43-2.8.35.35 0 01.14.06l-5.87 5.87h-.06a2 2 0 01-1.64-3.13zm63.89-21.85a6.7 6.7 0 01-7.82 1.43A2 2 0 1198 50.56a2.72 2.72 0 003.2-.67 2 2 0 012.85 2.82zm.62 5.29h-3.08a1.9 1.9 0 013.08 0zm-16.94-9.21l2.06-2.06a1.85 1.85 0 11-2.06 2.06zm.23 7.65A7.48 7.48 0 0186.53 58H79.2a1.93 1.93 0 01-.11-.53l2.15-2.15a1.77 1.77 0 01.39.07 2.72 2.72 0 003-1.21A2 2 0 1188 56.44zm4.47-.36h3.23a2 2 0 012 1.92h-7.27a2 2 0 012-1.92zm6.86-9.37a1.86 1.86 0 111.87-1.85 1.86 1.86 0 01-1.91 1.85zM111.42 49a25.36 25.36 0 00.44 4.08 23.06 23.06 0 001.33 3.73c.16.39.33.78.48 1.18h-4.33A26.47 26.47 0 01108 54a28.69 28.69 0 01-.54-4.74 15.48 15.48 0 00-1-5.64 15.67 15.67 0 00-3.84-4.33 30.14 30.14 0 01-2.7-2.61l2.82-2.82a27.08 27.08 0 002.54 2.44 18.62 18.62 0 014.72 5.57 18.48 18.48 0 011.42 7.13z"/>
</svg>
